<svg xmlns="http://www.w3.org/2000/svg" width="68.098" height="68.098" viewBox="0 0 68.098 68.098">
  <path id="linkedin_black_logo_icon_147114" d="M0,34.049A34.049,34.049,0,1,1,34.049,68.1,34.049,34.049,0,0,1,0,34.049ZM24.062,28.2H16.346V51.385h7.716Zm.508-7.172a4.009,4.009,0,0,0-4.315-4,4.017,4.017,0,1,0-.1,8.012H20.2A4.025,4.025,0,0,0,24.57,21.029ZM51.89,38.092c0-7.121-3.807-10.435-8.884-10.435a7.662,7.662,0,0,0-6.955,3.829V28.2H28.333c.1,2.175,0,23.184,0,23.184H36.05V38.438a5.271,5.271,0,0,1,.254-1.88,4.223,4.223,0,0,1,3.959-2.817c2.793,0,3.91,2.126,3.91,5.241v12.4H51.89Z" fill="#9568ff" fill-rule="evenodd"/>
</svg>
